<svg xmlns="http://www.w3.org/2000/svg" viewBox="0 0 128 128" role="img" aria-label="Missile launcher">
  <defs>
    <linearGradient id="base" x1="18" y1="96" x2="110" y2="96" gradientUnits="userSpaceOnUse">
      <stop offset="0" stop-color="#2a3144"/>
      <stop offset="0.52" stop-color="#70798f"/>
      <stop offset="1" stop-color="#171d2c"/>
    </linearGradient>
    <linearGradient id="missile" x1="42" y1="49" x2="96" y2="49" gradientUnits="userSpaceOnUse">
      <stop offset="0" stop-color="#171d2c"/>
      <stop offset="0.55" stop-color="#ffd166"/>
      <stop offset="1" stop-color="#ff735f"/>
    </linearGradient>
  </defs>
  <path d="M22 91h84c7 0 12 5 12 12v5H10v-5c0-7 5-12 12-12Z" fill="url(#base)" stroke="#e8f4ff" stroke-opacity=".38" stroke-width="5"/>
  <path d="M35 72h58c8 0 14 6 14 14v11H21V86c0-8 6-14 14-14Z" fill="#cfd7e7" stroke="#111827" stroke-width="5"/>
  <path d="M42 45 92 24c7-3 15 2 15 10v30c0 8-8 13-15 10L42 53c-4-2-4-7 0-8Z" fill="url(#missile)" stroke="#111827" stroke-width="5" stroke-linejoin="round"/>
  <path d="M34 49h38" stroke="#111827" stroke-width="12" stroke-linecap="round"/>
  <path d="M34 49h38" stroke="#ffb858" stroke-width="5" stroke-linecap="round"/>
  <path d="M94 37 112 49 94 61Z" fill="#ff735f" stroke="#111827" stroke-width="4" stroke-linejoin="round"/>
  <circle cx="54" cy="49" r="7" fill="#f8fbff"/>
  <path d="M26 101h76" stroke="#ffd166" stroke-opacity=".75" stroke-width="5" stroke-linecap="round"/>
</svg>
