<svg xmlns="http://www.w3.org/2000/svg" viewBox="0 0 96 96" role="img" aria-label="Shield generator">
  <defs>
    <linearGradient id="shell" x1="22" y1="18" x2="74" y2="82" gradientUnits="userSpaceOnUse">
      <stop offset="0" stop-color="#f8fbff"/>
      <stop offset="0.5" stop-color="#93a4c0"/>
      <stop offset="1" stop-color="#273149"/>
    </linearGradient>
    <radialGradient id="core" cx="48" cy="46" r="28" gradientUnits="userSpaceOnUse">
      <stop offset="0" stop-color="#f8fbff"/>
      <stop offset="0.32" stop-color="#77a7ff"/>
      <stop offset="1" stop-color="#77a7ff" stop-opacity="0"/>
    </radialGradient>
  </defs>
  <circle cx="48" cy="46" r="37" fill="none" stroke="#77a7ff" stroke-opacity=".34" stroke-width="5"/>
  <circle cx="48" cy="46" r="27" fill="none" stroke="#dffcff" stroke-opacity=".24" stroke-width="3"/>
  <path fill="#07101f" stroke="#dffcff" stroke-opacity=".38" stroke-width="4" d="M21 67h56a8 8 0 0 1 8 8v5H13v-5a8 8 0 0 1 8-8Z"/>
  <path fill="url(#shell)" stroke="#07101f" stroke-width="4" d="M24 66c4-25 13-42 24-50 11 8 20 25 24 50l-10 11H34Z"/>
  <circle cx="48" cy="46" r="26" fill="url(#core)"/>
  <path fill="none" stroke="#77a7ff" stroke-linecap="round" stroke-width="5" d="M31 47c6-11 28-11 34 0"/>
  <path fill="none" stroke="#dffcff" stroke-linecap="round" stroke-opacity=".82" stroke-width="3" d="M34 36c8-8 24-8 32 0M38 57c6 5 18 5 24 0"/>
  <circle cx="48" cy="46" r="8" fill="#77a7ff"/>
  <circle cx="48" cy="46" r="4" fill="#f8fbff"/>
</svg>
