<svg xmlns="http://www.w3.org/2000/svg" viewBox="0 0 96 96" role="img" aria-label="Spanner">
  <defs>
    <linearGradient id="metal" x1="18" y1="74" x2="78" y2="16" gradientUnits="userSpaceOnUse">
      <stop offset="0" stop-color="#7d8798"/>
      <stop offset=".48" stop-color="#f8fbff"/>
      <stop offset="1" stop-color="#66e0b8"/>
    </linearGradient>
  </defs>
  <rect width="96" height="96" rx="18" fill="#07101f"/>
  <path d="M69 11c-6 1-12 5-15 11-3 5-3 11-1 16L21 70c-4 4-4 10 0 14s10 4 14 0l32-32c5 2 11 2 16-1 6-3 10-9 11-15l-16 5-10-10 5-16c-1 0-3 0-4 1Z" fill="#151829" opacity=".72"/>
  <path d="M66 13c-5 2-9 5-12 10-3 5-3 10 0 15L22 70c-3 3-3 8 0 11s8 3 11 0l32-32c5 3 10 3 15 0 5-3 9-7 10-12l-15 5-12-12 5-15c-1 0-2 0-2 0Z" fill="url(#metal)" stroke="#f8fbff" stroke-width="2" stroke-linejoin="round"/>
  <circle cx="28" cy="76" r="5" fill="#07101f" stroke="#66e0b8" stroke-width="2"/>
</svg>
